# xmcd CD database file
#
# Track frame offsets:
#	183
#	11863
#	25820
#	45980
#	62683
#	73260
#	85843
#	97785
#	121970
#	133745
#	147125
#	157348
#	183385
#	207685
#
# Disc length: 3003 seconds
#
# Revision: 0
# Processed by: cddbd v1.5.2PL0 Copyright (c) Steve Scherf et al.
# Submitted via: CDex 1.51
#
DISCID=c80bb90e
DTITLE=Koka Media - Tribute to jazz piano - 2111
DYEAR=1996
DGENRE=Jazz
TTITLE0=Classy evening (Sigrist)
TTITLE1=All a jump (Sigrist)
TTITLE2=Gently now (Sigrist)
TTITLE3=Monkhood (Sigrist)
TTITLE4=Old stomp rag (Sigrist)
TTITLE5=Relaxin'by the sea (Sigrist)
TTITLE6=Modern swing (Sigrist)
TTITLE7=Dom Carlos (Sigrist)
TTITLE8=Spirit still alive (Sigrist)
TTITLE9=All that jive (Sigrist)
TTITLE10=Chime blues (Sigrist)
TTITLE11=Spanish heart (Sigrist)
TTITLE12=Pour Michel (Sigrist)
TTITLE13=Tribute to jazz piano (Sigrist)
EXTD=YEAR: 1996
EXTT0=
EXTT1=
EXTT2=
EXTT3=
EXTT4=
EXTT5=
EXTT6=
EXTT7=
EXTT8=
EXTT9=
EXTT10=
EXTT11=
EXTT12=
EXTT13=
PLAYORDER=
